<svg width="274" height="60" viewBox="0 0 274 60" fill="none" xmlns="http://www.w3.org/2000/svg">
<path d="M75.9399 22.5148L69.8897 53.6654H60.7794L70.3069 4.45996H82.4771L95.5859 44.3063C95.9337 41.9082 96.2004 40.0922 96.3859 38.8582C96.5945 37.6012 96.8031 36.4372 97.0117 35.3662L103.062 4.45996H112.172L102.645 53.6654H90.266L77.2613 14.1683C77.0063 16.0541 76.7629 17.6955 76.5311 19.0924C76.3224 20.4893 76.1254 21.6301 75.9399 22.5148ZM157.997 45.703L156.433 53.6654H116.514L126.007 4.45996H164.534L163.005 12.4222H134.735L132.336 24.7847H158.484L156.954 32.747H130.806L128.302 45.703H157.997ZM182.125 35.0169L178.543 53.6654H168.286L177.813 4.45996H200.45C204.159 4.45996 207.323 5.03037 209.942 6.17115C212.562 7.31194 214.555 8.94166 215.923 11.0602C217.291 13.1789 217.975 15.67 217.975 18.5336C217.975 22.3751 216.711 25.6345 214.185 28.3118C211.681 30.9891 208.273 32.6538 203.962 33.3058L213.489 53.6654H202.153L194.156 35.0169H182.125ZM197.355 26.9848C200.716 26.9848 203.255 26.3096 204.97 24.9593C206.709 23.5857 207.578 21.6417 207.578 19.1273C207.578 16.9621 206.836 15.3091 205.352 14.1683C203.892 13.0275 201.829 12.4572 199.163 12.4572H186.506L183.689 26.9848H197.355Z" fill="#000110"/>
<path d="M245.488 54.329C238.533 54.329 233.086 52.4897 229.145 48.8111C225.204 45.1094 223.234 39.9408 223.234 33.3058C223.234 27.462 224.45 22.2935 226.884 17.8002C229.295 13.2836 232.715 9.81467 237.142 7.3934C241.593 4.94882 246.716 3.72656 252.512 3.72656C257.797 3.72656 262.213 4.92555 265.759 7.32355C269.329 9.72155 271.729 13.0741 272.957 17.3811L263.152 20.1051C262.479 17.4743 261.181 15.4371 259.257 13.9937C257.333 12.5502 254.899 11.8285 251.955 11.8285C248.269 11.8285 245.035 12.7016 242.254 14.4477C239.472 16.1938 237.339 18.6733 235.856 21.8861C234.372 25.0989 233.63 28.8007 233.63 32.9914C233.63 37.1354 234.731 40.3949 236.934 42.7697C239.159 45.121 242.289 46.2966 246.322 46.2966C248.826 46.2966 251.26 45.9941 253.624 45.3889C255.988 44.7833 258.005 43.9686 259.674 42.9441L261.274 34.982H249.382L250.738 27.7181H272.088L268.437 47.5539C264.821 50.0452 261.205 51.8028 257.588 52.8273C253.972 53.8283 249.938 54.329 245.488 54.329Z" fill="#000110"/>
<mask id="mask0_1693_1740" style="mask-type:luminance" maskUnits="userSpaceOnUse" x="3" y="2" width="52" height="52">
<path d="M54.8736 2.8916H3.65826V53.494H54.8736V2.8916Z" fill="white"/>
</mask>
<g mask="url(#mask0_1693_1740)">
<path d="M37.8017 36.6265C41.3376 36.6265 44.2036 39.4582 44.2036 42.9518C44.2036 46.4453 41.3376 49.2771 37.8017 49.2771C34.2659 49.2771 31.3998 46.4453 31.3998 42.9518C31.3998 39.4582 34.2659 36.6265 37.8017 36.6265ZM16.462 28.1927C21.1781 28.1927 24.9979 31.9668 24.9979 36.6265C24.9979 41.2861 21.1781 45.0602 16.462 45.0602C11.7459 45.0602 7.92609 41.2861 7.92609 36.6265C7.92609 31.9668 11.7459 28.1927 16.462 28.1927ZM34.6008 7.1084C41.0838 7.1084 46.3376 12.2994 46.3376 18.7048C46.3376 25.1102 41.0838 30.3012 34.6008 30.3012C28.1177 30.3012 22.8639 25.1102 22.8639 18.7048C22.8639 12.2994 28.1177 7.1084 34.6008 7.1084Z" fill="#000110"/>
</g>
</svg>
