<svg width="28" height="28" viewBox="0 0 28 28" fill="none" xmlns="http://www.w3.org/2000/svg">
<path d="M15.2273 0.5L15.2285 4.25791C17.3912 4.53134 19.4015 5.51639 20.9429 7.05795C22.4842 8.59951 23.469 10.61 23.7421 12.7727H27.5V15.2273L23.7421 15.2285C23.4687 17.391 22.4838 19.4012 20.9425 20.9425C19.4012 22.4838 17.391 23.4687 15.2285 23.7421L15.2273 27.5H12.7727V23.7421C10.61 23.469 8.59951 22.4842 7.05795 20.9429C5.51639 19.4015 4.53134 17.3912 4.25791 15.2285L0.5 15.2273V12.7727H4.25791C4.53108 10.6098 5.51603 8.59918 7.05761 7.05761C8.59918 5.51603 10.6098 4.53108 12.7727 4.25791V0.5H15.2273ZM14 11.5455C13.349 11.5455 12.7247 11.8041 12.2644 12.2644C11.8041 12.7247 11.5455 13.349 11.5455 14C11.5455 14.651 11.8041 15.2753 12.2644 15.7356C12.7247 16.1959 13.349 16.4545 14 16.4545C14.651 16.4545 15.2753 16.1959 15.7356 15.7356C16.1959 15.2753 16.4545 14.651 16.4545 14C16.4545 13.349 16.1959 12.7247 15.7356 12.2644C15.2753 11.8041 14.651 11.5455 14 11.5455Z" fill="white"/>
<path d="M15.2273 0.5L15.2285 4.25791C17.3912 4.53134 19.4015 5.51639 20.9429 7.05795C22.4842 8.59951 23.469 10.61 23.7421 12.7727H27.5V15.2273L23.7421 15.2285C23.4687 17.391 22.4838 19.4012 20.9425 20.9425C19.4012 22.4838 17.391 23.4687 15.2285 23.7421L15.2273 27.5H12.7727V23.7421C10.61 23.469 8.59951 22.4842 7.05795 20.9429C5.51639 19.4015 4.53134 17.3912 4.25791 15.2285L0.5 15.2273V12.7727H4.25791C4.53108 10.6098 5.51603 8.59918 7.05761 7.05761C8.59918 5.51603 10.6098 4.53108 12.7727 4.25791V0.5H15.2273ZM14 11.5455C13.349 11.5455 12.7247 11.8041 12.2644 12.2644C11.8041 12.7247 11.5455 13.349 11.5455 14C11.5455 14.651 11.8041 15.2753 12.2644 15.7356C12.7247 16.1959 13.349 16.4545 14 16.4545C14.651 16.4545 15.2753 16.1959 15.7356 15.7356C16.1959 15.2753 16.4545 14.651 16.4545 14C16.4545 13.349 16.1959 12.7247 15.7356 12.2644C15.2753 11.8041 14.651 11.5455 14 11.5455Z" fill="#128DFF"/>
</svg>
