<svg width="24" height="23" viewBox="0 0 24 23" fill="none" xmlns="http://www.w3.org/2000/svg">
<path d="M5.30704 14.459L5.6717 14.5367L5.85022 14.2094L9.33397 7.82192L9.51241 7.49475L9.24987 7.23026C8.71081 6.6872 8.34459 5.9967 8.19739 5.24581C8.05019 4.49492 8.1286 3.71725 8.42272 3.01086C8.71685 2.30446 9.21354 1.70096 9.85016 1.27643C10.4868 0.851909 11.2348 0.625366 12 0.625366C12.7652 0.625366 13.5133 0.851909 14.1499 1.27643C14.7865 1.70096 15.2832 2.30446 15.5773 3.01086C15.8714 3.71725 15.9498 4.49492 15.8026 5.24581C15.6554 5.9967 15.2892 6.6872 14.7502 7.23026L14.4876 7.49475L14.6661 7.82192L18.1498 14.2094L18.3283 14.5367L18.693 14.459C19.6034 14.265 20.5531 14.4051 21.3687 14.8538C22.1842 15.3025 22.811 16.0298 23.1344 16.9026C23.4578 17.7754 23.4562 18.7355 23.1299 19.6072C22.8036 20.479 22.1744 21.2042 21.3574 21.6501C20.5404 22.0961 19.5901 22.2331 18.6804 22.0361C17.7707 21.839 16.9623 21.3211 16.4031 20.577C15.8439 19.8329 15.5712 18.9124 15.6348 17.9837C15.6985 17.0551 16.0944 16.1804 16.75 15.5197L17.0124 15.2552L16.834 14.9281L13.3502 8.5406L13.1719 8.21362L12.8075 8.29089C12.2751 8.4038 11.7249 8.4038 11.1925 8.29089L10.8281 8.21362L10.6498 8.5406L7.16606 14.9281L6.98767 15.2552L7.25007 15.5197C7.90566 16.1804 8.30149 17.0551 8.36518 17.9837C8.42888 18.9124 8.15617 19.8329 7.59694 20.577C7.03771 21.3211 6.22932 21.839 5.31961 22.0361C4.40989 22.2331 3.45964 22.0961 2.64263 21.6501C1.82561 21.2042 1.19644 20.479 0.870148 19.6072C0.543859 18.7355 0.542267 17.7754 0.865662 16.9026C1.18905 16.0298 1.81582 15.3025 2.63135 14.8538C3.44688 14.4051 4.39667 14.265 5.30704 14.459Z" stroke="white"/>
</svg>
