<svg width="26" height="26" viewBox="0 0 26 26" fill="none" xmlns="http://www.w3.org/2000/svg">
<path d="M9.41847 23.9667V20.1445C9.41847 19.1688 10.2152 18.3779 11.198 18.3779H14.7908C15.2627 18.3779 15.7154 18.564 16.0491 18.8953C16.3828 19.2266 16.5703 19.676 16.5703 20.1445V23.9667C16.5674 24.3723 16.7276 24.7624 17.0155 25.0502C17.3033 25.3381 17.6951 25.5 18.1037 25.5H20.5548C21.6995 25.5029 22.7984 25.0536 23.609 24.251C24.4195 23.4485 24.875 22.3587 24.875 21.2223V10.3336C24.875 9.41558 24.4651 8.5448 23.7558 7.95584L15.4175 1.34484C13.9671 0.185702 11.8889 0.223128 10.4817 1.43372L2.33377 7.95584C1.59093 8.52744 1.14694 9.4008 1.125 10.3336V21.2112C1.125 23.5798 3.05923 25.5 5.44522 25.5H7.84036C8.68903 25.5 9.37875 24.8203 9.3849 23.9778L9.41847 23.9667Z" stroke="white"/>
</svg>
