<svg width="24" height="23" viewBox="0 0 24 23" fill="none" xmlns="http://www.w3.org/2000/svg">
<path d="M5.41124 13.97L8.89498 7.58251C8.28636 6.96937 7.87289 6.18977 7.7067 5.34199C7.54051 4.49421 7.62903 3.61621 7.96111 2.81866C8.29319 2.02112 8.85396 1.33975 9.57273 0.860443C10.2915 0.381141 11.1361 0.125366 12 0.125366C12.8639 0.125366 13.7085 0.381141 14.4272 0.860443C15.146 1.33975 15.7068 2.02112 16.0389 2.81866C16.3709 3.61621 16.4595 4.49421 16.2933 5.34199C16.1271 6.18977 15.7136 6.96937 15.105 7.58251L18.5887 13.97C19.6166 13.7509 20.6889 13.9092 21.6097 14.4157C22.5304 14.9223 23.2381 15.7434 23.6032 16.7289C23.9683 17.7143 23.9665 18.7983 23.5981 19.7825C23.2297 20.7668 22.5194 21.5855 21.5969 22.089C20.6745 22.5925 19.6016 22.7472 18.5745 22.5247C17.5474 22.3023 16.6347 21.7175 16.0034 20.8774C15.372 20.0373 15.0641 18.998 15.136 17.9495C15.2079 16.9011 15.6548 15.9135 16.395 15.1675L12.9112 8.78001C12.3104 8.90742 11.6896 8.90742 11.0887 8.78001L7.60498 15.1675C8.34516 15.9135 8.79207 16.9011 8.86398 17.9495C8.93589 18.998 8.628 20.0373 7.99661 20.8774C7.36522 21.7175 6.45253 22.3023 5.42543 22.5247C4.39833 22.7472 3.32546 22.5925 2.40303 22.089C1.4806 21.5855 0.770235 20.7668 0.401844 19.7825C0.033453 18.7983 0.0316563 17.7143 0.396778 16.7289C0.7619 15.7434 1.46954 14.9223 2.3903 14.4157C3.31106 13.9092 4.38341 13.7509 5.41124 13.97Z" fill="#128DFF"/>
</svg>
