<svg width="28" height="28" viewBox="0 0 28 28" fill="none" xmlns="http://www.w3.org/2000/svg">
<path d="M13.2727 4.25791V1H14.7274L14.7285 4.25807L14.7286 4.69869L15.1658 4.75396C17.2184 5.01347 19.1264 5.94839 20.5893 7.41148C22.0522 8.87457 22.9868 10.7827 23.246 12.8354L23.3013 13.2727H23.7421H27V14.7274L23.7419 14.7285L23.3013 14.7286L23.246 15.1658C22.9866 17.2183 22.0518 19.1261 20.589 20.589C19.1261 22.0518 17.2183 22.9866 15.1658 23.246L14.7286 23.3013L14.7285 23.7419L14.7274 27H13.2727V23.7421V23.3013L12.8354 23.246C10.7827 22.9868 8.87457 22.0522 7.41148 20.5893C5.94839 19.1264 5.01347 17.2184 4.75396 15.1658L4.69869 14.7286L4.25807 14.7285L1 14.7274V13.2727H4.25791H4.69873L4.75397 12.8354C5.01324 10.7825 5.94805 8.87427 7.41116 7.41116C8.87427 5.94805 10.7825 5.01324 12.8354 4.75397L13.2727 4.69873V4.25791ZM14 11.0455C13.2164 11.0455 12.4649 11.3567 11.9108 11.9108C11.3567 12.4649 11.0455 13.2164 11.0455 14C11.0455 14.7836 11.3567 15.5351 11.9108 16.0892C12.4649 16.6433 13.2164 16.9545 14 16.9545C14.7836 16.9545 15.5351 16.6433 16.0892 16.0892C16.6433 15.5351 16.9545 14.7836 16.9545 14C16.9545 13.2164 16.6433 12.4649 16.0892 11.9108C15.5351 11.3567 14.7836 11.0455 14 11.0455Z" stroke="white"/>
</svg>
